<svg width="29" height="28" viewBox="0 0 29 28" fill="none" xmlns="http://www.w3.org/2000/svg">
    <g opacity="0.7" filter="url(#filter0_d)">
        <path fill-rule="evenodd" clip-rule="evenodd" d="M14.5 21C9.75 16.4996 5 11.9993 5 7.50036C5 5.01537 7.13132 3 9.75 3C12.133 3 13.3172 4.12509 14.5 6.37527C15.6842 4.12509 16.883 3 19.25 3C21.8687 3 24 5.01537 24 7.50036C24 11.9993 19.25 16.4996 14.5 21Z" fill="white" fill-opacity="0.7"/>
        <path fill-rule="evenodd" clip-rule="evenodd" d="M14.5 21C9.75 16.4996 5 11.9993 5 7.50036C5 5.01537 7.13132 3 9.75 3C12.133 3 13.3172 4.12509 14.5 6.37527C15.6842 4.12509 16.883 3 19.25 3C21.8687 3 24 5.01537 24 7.50036C24 11.9993 19.25 16.4996 14.5 21Z" stroke="#4D4D4D" stroke-width="2" stroke-linecap="round" stroke-linejoin="round"/>
        </g>
    <defs>
        <filter id="filter0_d" x="0" y="0" width="29" height="28" filterUnits="userSpaceOnUse" color-interpolation-filters="sRGB">
            <feFlood flood-opacity="0" result="BackgroundImageFix"/>
            <feColorMatrix in="SourceAlpha" type="matrix" values="0 0 0 0 0 0 0 0 0 0 0 0 0 0 0 0 0 0 127 0"/>
            <feOffset dy="2"/>
            <feGaussianBlur stdDeviation="2"/>
            <feColorMatrix type="matrix" values="0 0 0 0 0 0 0 0 0 0 0 0 0 0 0 0 0 0 0.12 0"/>
            <feBlend mode="normal" in2="BackgroundImageFix" result="effect1_dropShadow"/>
            <feBlend mode="normal" in="SourceGraphic" in2="effect1_dropShadow" result="shape"/>
        </filter>
    </defs>
</svg>